<?xml version="1.0" encoding="UTF-8"?>
<svg width="8px" height="12px" viewBox="0 0 8 12" version="1.1" xmlns="http://www.w3.org/2000/svg" xmlns:xlink="http://www.w3.org/1999/xlink">
    <!-- Generator: Sketch 46.2 (44496) - http://www.bohemiancoding.com/sketch -->
    <title>pin</title>
    <desc>Created with Sketch.</desc>
    <defs></defs>
    <g id="Page-4" stroke="none" stroke-width="1" fill="none" fill-rule="evenodd">
        <g id="Artboard" transform="translate(-22.000000, -119.000000)" fill-rule="nonzero" fill="#000000">
            <g id="pin" transform="translate(22.000000, 119.000000)">
                <path d="M4,0 C1.79444181,0 0,1.79444531 0,4.00000781 C0,4.66211719 0.165538739,5.31860156 0.480233437,5.90088281 L3.78125824,11.8710938 C3.82520347,11.9506875 3.90894549,12 4,12 C4.09105451,12 4.17479653,11.9506875 4.21874176,11.8710938 L7.52098531,5.89891406 C7.83446126,5.31860156 8,4.66209375 8,3.99998438 C8,1.79444531 6.20555819,0 4,0 Z M4,6 C2.8972209,6 2.00001172,5.10278906 2.00001172,4.00000781 C2.00001172,2.89722656 2.8972209,2.00001563 4,2.00001563 C5.1027791,2.00001563 5.99998828,2.89722656 5.99998828,4.00000781 C5.99998828,5.10278906 5.1027791,6 4,6 Z" id="Shape"></path>
            </g>
        </g>
    </g>
</svg>